<svg width="121" height="56" viewBox="0 0 121 56" fill="none" xmlns="http://www.w3.org/2000/svg">
<rect width="120" height="55.2632" transform="translate(0.5)" fill="white"/>
<path d="M20.6037 2.49479L0.699238 50.2627C-0.105001 54.4953 1.50346 55.7047 5.92667 54.8985C19.7995 49.6581 30.6564 50.8674 42.3176 54.8985C46.4606 56.3306 47.9471 53.286 47.1429 50.2627L27.0374 2.49479C25.8311 -0.730057 21.81 -0.931609 20.6037 2.49479Z" fill="#FEBC12"/>
<path d="M22.8896 18.9208L16.0446 35.2721C15.768 36.721 16.3212 37.1349 17.8423 36.859C22.613 35.0651 26.3466 35.4791 30.3568 36.859C31.7815 37.3492 32.2927 36.307 32.0162 35.2721L25.1021 18.9208C24.6872 17.8169 23.3044 17.7479 22.8896 18.9208Z" fill="#FED261"/>
<path fill-rule="evenodd" clip-rule="evenodd" d="M23.9881 18.492C23.7359 18.4872 23.4411 18.6346 23.2896 19.0629L23.2856 19.0742L16.4535 35.3948C16.3304 36.0735 16.4462 36.3049 16.5441 36.3883C16.6017 36.4373 16.7094 36.4896 16.9177 36.5077C17.1195 36.5251 17.3863 36.5076 17.7303 36.4472C22.5968 34.6267 26.4254 35.0566 30.4948 36.4569C31.1046 36.6667 31.3773 36.5129 31.4983 36.3664C31.6481 36.1849 31.7213 35.8362 31.6141 35.4094L24.7087 19.0788L24.7057 19.0707C24.5548 18.669 24.251 18.4971 23.9881 18.492ZM25.496 18.7623C25.2305 18.0653 24.6377 17.6541 24.0043 17.642C23.3612 17.6296 22.7602 18.0298 22.4946 18.7668L15.6369 35.1486L15.6286 35.1922C15.4879 35.9293 15.5076 36.6213 15.9953 37.0364C16.2316 37.2375 16.5301 37.3275 16.8447 37.3547C17.1586 37.3819 17.5196 37.3496 17.9182 37.2773L17.9558 37.2704L17.9916 37.257C22.6492 35.5057 26.2788 35.9051 30.2196 37.261C31.0346 37.5415 31.7299 37.4193 32.1515 36.9085C32.5411 36.4366 32.5853 35.7578 32.4262 35.1621L32.4185 35.1335L25.496 18.7623Z" fill="#FED261"/>
<path d="M29.8622 29.1194L30.3922 30.3947C29.8065 30.5303 29.523 30.5631 29.0725 30.7438C28.5318 31.2859 27.6306 30.9245 27.3603 30.7438C26.5943 29.8855 25.9635 29.9759 25.3778 29.75C24.9723 29.5241 25.1975 29.1176 25.6932 29.1627C26.4141 29.1627 26.9478 29.2205 27.6757 29.7048C27.8109 29.75 27.946 29.6145 27.7658 29.4338C26.9385 28.9149 26.4362 28.8047 25.4679 28.9369C24.8662 29.0608 24.9774 29.2849 24.9723 29.6145C24.1928 29.7813 23.8557 29.8772 23.17 30.0662C22.7645 30.1114 22.5392 29.7048 22.9447 29.479L25.8283 28.3045C26.6564 28.0833 26.9998 27.8527 28.3065 28.8014C28.8021 29.1176 29.1413 29.3001 29.8622 29.1194Z" fill="#FEBC12"/>
<path d="M20.9171 29.5242C20.155 28.9056 18.5141 29.5543 17.8082 29.9307L17.036 31.7763L18.3939 31.3311C19.0652 31.0408 19.591 31.1122 20.9622 31.9183C21.6831 32.2797 23.0799 31.6925 25.2877 30.6535C25.4815 30.5495 25.513 30.1566 25.1525 30.1566C24.4048 30.3141 23.9911 30.4144 23.2601 30.6083C23.3052 31.0149 23.1326 31.2258 22.8095 31.2407C21.8529 31.285 21.3368 31.2515 20.5567 30.789C20.2735 30.6212 20.3314 30.3825 20.5567 30.4276C21.1875 30.789 21.5479 30.9697 22.5392 30.9697C23.2151 31.0149 22.9898 30.4276 22.5392 30.3373C22.2689 30.3072 21.8633 30.2921 20.9171 29.5242Z" fill="#FEBC12"/>
<path d="M105.821 27.147C105.821 25.7186 106.101 24.4518 106.66 23.3465C107.237 22.2413 108.009 21.3911 108.976 20.7959C109.959 20.2008 111.053 19.9032 112.257 19.9032C113.309 19.9032 114.225 20.1158 115.005 20.5409C115.802 20.966 116.438 21.5016 116.913 22.1478V20.1328H120.5V34.2632H116.913V32.1972C116.455 32.8603 115.819 33.4129 115.005 33.8551C114.208 34.2802 113.283 34.4927 112.232 34.4927C111.045 34.4927 109.959 34.1866 108.976 33.5745C108.009 32.9623 107.237 32.1036 106.66 30.9984C106.101 29.8761 105.821 28.5923 105.821 27.147ZM116.913 27.198C116.913 26.3308 116.743 25.5911 116.404 24.9789C116.065 24.3498 115.607 23.8737 115.03 23.5506C114.454 23.2105 113.835 23.0405 113.173 23.0405C112.512 23.0405 111.901 23.202 111.341 23.5251C110.782 23.8482 110.324 24.3243 109.968 24.9534C109.629 25.5656 109.459 26.2968 109.459 27.147C109.459 27.9972 109.629 28.7453 109.968 29.3915C110.324 30.0206 110.782 30.5053 111.341 30.8453C111.918 31.1854 112.529 31.3555 113.173 31.3555C113.835 31.3555 114.454 31.1939 115.03 30.8708C115.607 30.5308 116.065 30.0546 116.404 29.4425C116.743 28.8134 116.913 28.0652 116.913 27.198Z" fill="#FEBC12"/>
<path d="M89.0876 27.1469C89.0876 25.7186 89.3675 24.4518 89.9272 23.3465C90.5038 22.2413 91.284 21.3911 92.2677 20.7959C93.2514 20.2008 94.3453 19.9032 95.5495 19.9032C96.4654 19.9032 97.3388 20.1073 98.1699 20.5154C99.0009 20.9065 99.6624 21.4336 100.154 22.0967V15.3886H103.767V34.2631H100.154V32.1716C99.7133 32.8688 99.0942 33.4299 98.2971 33.855C97.4999 34.2801 96.5756 34.4927 95.5241 34.4927C94.3368 34.4927 93.2514 34.1866 92.2677 33.5745C91.284 32.9623 90.5038 32.1036 89.9272 30.9984C89.3675 29.8761 89.0876 28.5923 89.0876 27.1469ZM100.18 27.198C100.18 26.3307 100.01 25.5911 99.6709 24.9789C99.3316 24.3498 98.8737 23.8737 98.2971 23.5506C97.7204 23.2105 97.1014 23.0405 96.4399 23.0405C95.7785 23.0405 95.1679 23.202 94.6082 23.5251C94.0485 23.8482 93.5906 24.3243 93.2344 24.9534C92.8952 25.5656 92.7256 26.2967 92.7256 27.1469C92.7256 27.9971 92.8952 28.7453 93.2344 29.3915C93.5906 30.0206 94.0485 30.5052 94.6082 30.8453C95.1849 31.1854 95.7954 31.3554 96.4399 31.3554C97.1014 31.3554 97.7204 31.1939 98.2971 30.8708C98.8737 30.5307 99.3316 30.0546 99.6709 29.4425C100.01 28.8133 100.18 28.0652 100.18 27.198Z" fill="#FEBC12"/>
<path d="M86.9978 20.1328V34.2631H83.4107V32.4777C82.9528 33.0899 82.3507 33.5745 81.6044 33.9316C80.8751 34.2716 80.078 34.4417 79.213 34.4417C78.1106 34.4417 77.1354 34.2121 76.2874 33.753C75.4394 33.2769 74.7694 32.5882 74.2776 31.687C73.8027 30.7688 73.5652 29.6806 73.5652 28.4223V20.1328H77.1269V27.9121C77.1269 29.0344 77.4067 29.9016 77.9664 30.5138C78.5261 31.1089 79.2893 31.4065 80.2561 31.4065C81.2398 31.4065 82.0115 31.1089 82.5712 30.5138C83.1308 29.9016 83.4107 29.0344 83.4107 27.9121V20.1328H86.9978Z" fill="#FEBC12"/>
<path d="M68.9272 18.4494C68.2827 18.4494 67.7484 18.2538 67.3244 17.8627C66.9174 17.4546 66.7139 16.953 66.7139 16.3579C66.7139 15.7627 66.9174 15.2696 67.3244 14.8785C67.7484 14.4704 68.2827 14.2664 68.9272 14.2664C69.5547 14.2664 70.072 14.4704 70.479 14.8785C70.8861 15.2696 71.0896 15.7627 71.0896 16.3579C71.0896 16.953 70.8861 17.4546 70.479 17.8627C70.072 18.2538 69.5547 18.4494 68.9272 18.4494ZM70.6826 36.5842C70.6826 38.1486 70.2925 39.2708 69.5123 39.951C68.7491 40.6482 67.6467 40.9967 66.2051 40.9967H64.6277V37.9615H65.6454C66.1881 37.9615 66.5697 37.851 66.7902 37.6299C67.0107 37.4259 67.1209 37.0858 67.1209 36.6097V20.1328H70.6826V36.5842Z" fill="#FEBC12"/>
<path d="M49.4722 27.147C49.4722 25.7186 49.7521 24.4518 50.3118 23.3465C50.8884 22.2413 51.6601 21.3911 52.6268 20.7959C53.6105 20.2008 54.7045 19.9032 55.9087 19.9032C56.9602 19.9032 57.876 20.1158 58.6562 20.5409C59.4533 20.966 60.0894 21.5016 60.5642 22.1478V20.1328H64.1513V34.2631H60.5642V32.1972C60.1063 32.8603 59.4703 33.4129 58.6562 33.8551C57.8591 34.2802 56.9347 34.4927 55.8832 34.4927C54.696 34.4927 53.6105 34.1866 52.6268 33.5745C51.6601 32.9623 50.8884 32.1036 50.3118 30.9984C49.7521 29.8761 49.4722 28.5923 49.4722 27.147ZM60.5642 27.198C60.5642 26.3308 60.3946 25.5911 60.0554 24.9789C59.7162 24.3498 59.2583 23.8737 58.6817 23.5506C58.105 23.2105 57.486 23.0405 56.8245 23.0405C56.1631 23.0405 55.5525 23.202 54.9928 23.5251C54.4331 23.8482 53.9752 24.3243 53.619 24.9534C53.2798 25.5656 53.1102 26.2968 53.1102 27.147C53.1102 27.9972 53.2798 28.7453 53.619 29.3915C53.9752 30.0206 54.4331 30.5053 54.9928 30.8453C55.5694 31.1854 56.18 31.3555 56.8245 31.3555C57.486 31.3555 58.105 31.1939 58.6817 30.8708C59.2583 30.5308 59.7162 30.0546 60.0554 29.4425C60.3946 28.8134 60.5642 28.0652 60.5642 27.198Z" fill="#FEBC12"/>
</svg>
