<svg width="20" height="20" viewBox="0 0 20 20" fill="none" xmlns="http://www.w3.org/2000/svg">
<path d="M5.8243 11.5645L5.30218 13.5137L3.39381 13.554C2.82349 12.4962 2.5 11.286 2.5 9.99982C2.5 8.75615 2.80246 7.58334 3.33859 6.55066H3.339L5.03798 6.86214L5.78223 8.55092C5.62646 9.00505 5.54156 9.49255 5.54156 9.99982C5.54162 10.5504 5.64134 11.0779 5.8243 11.5645Z" fill="#FBBB00"/>
<path d="M17.3692 8.59863C17.4554 9.05232 17.5003 9.52087 17.5003 9.99972C17.5003 10.5367 17.4438 11.0604 17.3363 11.5657C16.9712 13.2849 16.0172 14.7861 14.6956 15.8485L14.6952 15.8481L12.5553 15.7389L12.2524 13.8482C13.1293 13.3339 13.8146 12.5291 14.1756 11.5657H10.1652V8.59863H14.2341H17.3692Z" fill="#518EF8"/>
<path d="M14.6946 15.8486L14.695 15.849C13.4097 16.8821 11.777 17.5002 9.99971 17.5002C7.14354 17.5002 4.66032 15.9038 3.39355 13.5545L5.82404 11.5649C6.45741 13.2553 8.08804 14.4586 9.99971 14.4586C10.8214 14.4586 11.5912 14.2365 12.2517 13.8487L14.6946 15.8486Z" fill="#28B446"/>
<path d="M14.7868 4.22663L12.3571 6.21577C11.6735 5.78844 10.8654 5.54159 9.9996 5.54159C8.04465 5.54159 6.38353 6.80009 5.78189 8.55107L3.33863 6.5508H3.33822C4.58644 4.14422 7.10098 2.5 9.9996 2.5C11.8194 2.5 13.4879 3.14822 14.7868 4.22663Z" fill="#F14336"/>
</svg>
