<svg width="22" height="22" viewBox="0 0 22 22" fill="none" xmlns="http://www.w3.org/2000/svg">
<rect width="22" height="22" rx="8" fill="#FED261"/>
<path d="M9 9H13M9 11H13M9 13H13M15 6.34754V15.6524C15 15.8393 14.8044 15.9609 14.6382 15.8773L13.2236 15.1658C13.0828 15.095 12.9172 15.095 12.7764 15.1658L11.2236 15.9468C11.0828 16.0176 10.9172 16.0176 10.7764 15.9468L9.22361 15.1658C9.08284 15.095 8.91716 15.095 8.77639 15.1658L7.3618 15.8773C7.19558 15.9609 7 15.8393 7 15.6524V6.34754C7 6.16059 7.19558 6.039 7.3618 6.12261L8.77639 6.8341C8.91716 6.9049 9.08284 6.9049 9.22361 6.8341L10.7764 6.0531C10.8468 6.0177 10.9234 6 11 6C11.0766 6 11.1532 6.0177 11.2236 6.0531L12.7764 6.8341C12.9172 6.9049 13.0828 6.9049 13.2236 6.8341L14.6382 6.12261C14.8044 6.039 15 6.16059 15 6.34754Z" stroke="#FFF2D0" stroke-linecap="round" stroke-linejoin="round"/>
<circle cx="15" cy="15.5" r="2.45" fill="#FFE9B0" stroke="#FFE9B0" stroke-width="0.1"/>
<path d="M14.5 15.5H16.5V16H14.5V15.5Z" fill="white"/>
<path d="M14.5 15.9998L14.5278 14L15.0277 14.007L15 16.0068L14.5 15.9998Z" fill="white"/>
</svg>
