<svg width="19" height="20" viewBox="0 0 19 20" fill="none" xmlns="http://www.w3.org/2000/svg">
<path d="M6.875 19H4.875C3.21815 19 1.875 17.7389 1.875 16.1833V8.90002C1.875 8.15299 2.19107 7.43656 2.75368 6.90834L8.46079 1.54999C9.24184 0.81667 10.5082 0.816671 11.2892 1.54999L16.9963 6.90834C17.5589 7.43656 17.875 8.15299 17.875 8.90002V16.1833C17.875 17.7389 16.5319 19 14.875 19H12.875M6.875 19V14C6.875 12.8954 7.77043 12 8.875 12H10.875C11.9796 12 12.875 12.8954 12.875 14V19M6.875 19H12.875" stroke="#818898" stroke-width="2"/>
</svg>
