<svg width="231" height="230" viewBox="0 0 231 230" fill="none" xmlns="http://www.w3.org/2000/svg">
<circle opacity="0.4" cx="115.5" cy="115" r="115" fill="#FFF2D0"/>
<rect width="80.1127" height="75" transform="translate(76 77)" fill="white"/>
<path d="M100.757 109.039V98.8446C100.757 94.4757 105.126 86.466 114.956 85.7378V77.364C99.6651 78.4562 93.1117 88.6504 92.0194 98.8446V109.039H100.757Z" fill="#36394A"/>
<path d="M130.612 109.039V103.053C130.612 99.2886 130.403 95.3603 128.225 92.2904C125.573 88.5522 120.74 85.0021 113.136 85.7379V77.3641C126.607 75.9077 137.165 85.7378 137.165 98.8446V102.486C137.165 106.105 134.231 109.039 130.612 109.039Z" fill="#36394A"/>
<path d="M100.757 109.039V106.854M130.612 109.039V103.053C130.612 99.2884 130.479 95.329 128.319 92.2468C125.563 88.3167 120.933 85.7378 115.684 85.7378C110.23 85.7378 105.442 88.5239 102.734 92.7174C100.896 95.5628 100.757 99.0981 100.757 102.485V102.485" stroke="#36394A" stroke-width="2" stroke-linecap="round"/>
<path d="M139.35 109.039V98.1165V97.3883C139.083 95.0837 138.482 92.882 137.591 90.835M92.0194 109.039L92.094 98.1165C93.066 86.2998 103.42 77 116.049 77C124.38 77 131.457 81.0472 135.595 87.1942" stroke="#36394A" stroke-width="2" stroke-linecap="round"/>
<path d="M82.5534 117.039C82.5534 112.621 86.1351 109.039 90.5534 109.039H136.447C140.865 109.039 144.447 112.621 144.447 117.039V128C144.447 141.255 133.701 152 120.447 152H90.5534C86.1351 152 82.5534 148.418 82.5534 144V117.039Z" fill="#FED261"/>
<path d="M82.5534 117.039C82.5534 112.621 86.1351 109.039 90.5534 109.039H91.0194C91.5717 109.039 92.0194 109.476 92.0194 110.029C92.0194 114.04 92.0194 129.265 92.0194 137.437C92.0194 146.903 91.6205 150.866 97.1165 152H90.5534C86.1351 152 82.5534 148.418 82.5534 144V117.039Z" fill="#FED261"/>
<path d="M76 152H78.9126M147.359 117.49V117.039C147.359 112.621 143.777 109.039 139.359 109.039H90.5534C86.1351 109.039 82.5534 112.621 82.5534 117.039V146.175M147.359 121.716V144C147.359 148.418 143.777 152 139.359 152H81.0971" stroke="#36394A" stroke-width="2" stroke-linecap="round"/>
<path d="M92.0194 113.408V144C92.0194 148.418 95.6011 152 100.019 152H139.359C143.777 152 147.359 148.418 147.359 144V122.004" stroke="#36394A" stroke-width="2" stroke-linecap="round"/>
<path d="M135.709 123.602H147.359" stroke="#36394A" stroke-width="2" stroke-linecap="round"/>
<path d="M135.709 137.437H137.165M147.359 137.437H140.078" stroke="#36394A" stroke-width="2" stroke-linecap="round"/>
<path d="M92.0194 137.437H105.854" stroke="#36394A" stroke-width="2" stroke-linecap="round"/>
<path d="M92.0194 123.602H101.485M105.854 123.602H104.034" stroke="#36394A" stroke-width="2" stroke-linecap="round"/>
<path d="M120.782 116.32C116.157 116.32 112.408 120.069 112.408 124.694C112.408 127.724 114.366 130.505 116.777 131.976V141.534C116.777 142.086 117.224 142.534 117.777 142.534H120.782H123.33H123.786C124.339 142.534 124.786 142.086 124.786 141.534V131.976C127.197 130.505 129.155 127.724 129.155 124.694C129.155 120.069 125.406 116.32 120.782 116.32Z" fill="#E1E8BE"/>
<path d="M121.146 124.729C121.146 122.175 119.531 119.329 117.598 117.873C117.322 117.665 116.949 117.648 116.649 117.819C112.434 120.228 112.772 124.694 112.772 124.694C112.772 124.694 112.772 129.076 116.666 131.418C116.958 131.593 117.325 131.586 117.605 131.393C119.618 130.009 121.146 127.414 121.146 124.729Z" fill="white"/>
<path d="M123.33 142.534H123.786C124.339 142.534 124.786 142.086 124.786 141.534V131.976C127.197 130.505 129.155 127.724 129.155 124.694C129.155 120.069 125.406 116.32 120.782 116.32C116.157 116.32 112.408 120.069 112.408 124.694C112.408 127.724 114.366 130.505 116.777 131.976V141.534C116.777 142.086 117.224 142.534 117.777 142.534H120.417" stroke="#36394A" stroke-width="2" stroke-linecap="round"/>
<path d="M116.777 117.413C117.559 117.884 118.31 118.492 118.961 119.202M116.777 131.976C119.218 130.615 121.146 127.385 121.146 124.33C121.146 123.444 120.956 122.586 120.627 121.782" stroke="#36394A" stroke-width="2" stroke-linecap="round"/>
<path d="M145.175 97.3884L150.195 93.176" stroke="#FED261" stroke-width="2" stroke-linecap="round"/>
<path d="M145.903 103.558L146.631 103.429M156.113 101.757L148.224 103.148" stroke="#FED261" stroke-width="2" stroke-linecap="round"/>
</svg>
