<svg width="231" height="230" viewBox="0 0 231 230" fill="none" xmlns="http://www.w3.org/2000/svg">
<circle opacity="0.4" cx="115.5" cy="115" r="115" fill="#FFF2D0"/>
<rect width="116.016" height="75" transform="translate(58 77)" fill="white"/>
<path d="M78 93C78 84.1634 85.1634 77 94 77H157C165.837 77 173 84.1634 173 93V136C173 144.837 165.837 152 157 152H94C85.1634 152 78 144.837 78 136V93Z" fill="#FEC739"/>
<path d="M96.6718 99.0623C96.6718 94.644 100.254 91.0623 104.672 91.0623H134.094C145.139 91.0623 154.094 100.017 154.094 111.062V126.422C154.094 130.84 150.512 134.422 146.094 134.422H104.672C100.254 134.422 96.6718 130.84 96.6718 126.422V99.0623Z" fill="#FED261"/>
<path d="M142.595 92.2341H101.844C99.6346 92.2341 97.8437 94.025 97.8437 96.2341V129.25C97.8437 131.459 99.6345 133.25 101.844 133.25H148.922C151.131 133.25 152.922 131.459 152.922 129.25V95.1226" stroke="#302F30" stroke-width="2" stroke-linecap="round"/>
<path d="M110.734 120.359L99.6015 131.492" stroke="#302F30" stroke-width="2" stroke-linecap="round"/>
<path d="M79.0937 150.828H156.844C165.68 150.828 172.844 143.665 172.844 134.828V101.609M77.9219 142.039V93C77.9219 84.1634 85.0853 77 93.9219 77H158.781C166.548 77 172.844 83.296 172.844 91.0625V91.0625" stroke="#302F30" stroke-width="2" stroke-linecap="round"/>
<path d="M121.21 114.972L97.8437 102.781V96.2341C97.8437 94.025 99.6345 92.2341 101.844 92.2341H142.088C148.071 92.2341 152.922 97.0846 152.922 103.068L128.43 115.064C126.146 116.183 123.465 116.149 121.21 114.972Z" fill="#FFF2D0"/>
<path d="M152.922 95.1638V103.068L128.43 115.064C126.146 116.183 123.465 116.149 121.21 114.972L120.305 114.5L115.422 111.952L97.8437 102.781V96.2341C97.8437 94.025 99.6346 92.2341 101.844 92.2341H142.375" stroke="#302F30" stroke-width="2" stroke-linecap="round"/>
<path d="M140.031 120.359L141.203 121.531M151.164 131.492L144.719 125.047" stroke="#302F30" stroke-width="2" stroke-linecap="round"/>
<path d="M58 100.438H61.5156M88.4687 100.438H66.2031" stroke="#302F30" stroke-width="2" stroke-linecap="round"/>
<line x1="73.0625" y1="113.5" x2="85.125" y2="113.5" stroke="#302F30" stroke-width="2" stroke-linecap="round"/>
<line x1="66.0312" y1="125.219" x2="89.8124" y2="125.219" stroke="#302F30" stroke-width="2" stroke-linecap="round"/>
</svg>
