<svg width="19" height="22" viewBox="0 0 19 22" fill="none" xmlns="http://www.w3.org/2000/svg">
<path d="M7.375 1H11.375M7.375 20.2361C7.90576 20.7111 8.60665 21 9.375 21C10.1434 21 10.8442 20.7111 11.375 20.2361M2.45993 17.5C1.65445 17.5 1.13057 16.7407 1.49079 16.0954L2.81342 13.7258C3.56569 12.3781 3.95734 10.892 3.95734 9.38522V8.76471C3.95734 7.11791 4.87304 5.6627 6.27323 4.78534C6.33978 4.74364 6.40743 4.70324 6.47613 4.6642C7.31438 4.1877 8.30872 3.91176 9.375 3.91176C10.4413 3.91176 11.4356 4.1877 12.2739 4.6642C12.3426 4.70324 12.4102 4.74364 12.4768 4.78534C13.877 5.6627 14.7927 7.11791 14.7927 8.76471V9.38522C14.7927 10.892 15.1843 12.3781 15.9366 13.7258L17.2592 16.0954C17.6194 16.7407 17.0955 17.5 16.2901 17.5H12.375H6.375H2.45993Z" stroke="#818898" stroke-width="2" stroke-linecap="round"/>
</svg>
