<svg width="13" height="14" viewBox="0 0 13 14" fill="none" xmlns="http://www.w3.org/2000/svg">
<path d="M8.43053 8.93053C10.159 7.20209 10.159 4.39975 8.43053 2.67132C6.70209 0.942892 3.89975 0.942892 2.17132 2.67132C0.442892 4.39975 0.442892 7.20209 2.17132 8.93053C3.89975 10.659 6.70209 10.659 8.43053 8.93053ZM8.43053 8.93053L10.3591 10.8591M3.51258 4.01258C4.50025 3.02491 6.10159 3.02491 7.08927 4.01258M10.3591 10.8591L10.4517 10.7665C10.5752 10.6431 10.7753 10.6431 10.8988 10.7665L12.0324 11.9001C12.1559 12.0236 12.1559 12.2238 12.0324 12.3472L11.8472 12.5324C11.7238 12.6559 11.5236 12.6559 11.4001 12.5324L10.2665 11.3988C10.1431 11.2753 10.1431 11.0752 10.2665 10.9517L10.3591 10.8591Z" stroke="#DFE1E7" stroke-linecap="round" stroke-linejoin="round"/>
</svg>
